<svg enable-background="new 0 0 256 256" height="512" viewBox="0 0 256 256" width="512" xmlns="http://www.w3.org/2000/svg"><circle cx="128" cy="84.799" fill="#facb35" r="82.099"/><circle cx="128" cy="84.799" fill="#fcac27" r="64.142"/><path d="m128 169.398c-46.648 0-84.599-37.951-84.599-84.599s37.951-84.598 84.599-84.598c46.647 0 84.599 37.951 84.599 84.599s-37.952 84.598-84.599 84.598zm0-164.197c-43.891 0-79.599 35.708-79.599 79.599s35.708 79.599 79.599 79.599 79.599-35.708 79.599-79.599-35.708-79.599-79.599-79.599z"/><path d="m104.825 61.312c-17.183 0-1.909 0-19.217 0-.927 0-1.678.751-1.678 1.678v51.13c0 .927.751 1.678 1.678 1.678h19.217c.927 0 1.678-.751 1.678-1.678v-51.13c.001-.926-.751-1.678-1.678-1.678z" fill="#1387ce"/><path d="m114.253 64.59h-7.749v47.112h7.749c.927 0 1.678-.751 1.678-1.678v-43.756c0-.927-.751-1.678-1.678-1.678z" fill="#c5e3ff"/><path d="m170.454 84.482c0-3.007-2.438-5.444-5.444-5.444 3.007 0 5.444-2.437 5.444-5.444s-2.438-5.444-5.444-5.444c-5.134 0-11.232 0-16.149 0 2.649-7.838 6.539-14.516 5.493-19.895-1.2-6.17-8.913-8.227-10.051-2.398-1.117 5.72-9.794 16.587-9.794 16.587-2.535 2.535-2.561 5.46-18.578 5.851v39.692h6.175c2.673 0 5.329.419 7.872 1.242l4.15 1.343c2.316.749 4.736 1.131 7.17 1.131h23.712c3.007 0 5.444-2.437 5.444-5.444s-2.438-5.444-5.444-5.444c3.007 0 5.444-2.437 5.444-5.444s-2.437-5.444-5.444-5.444c3.007-.001 5.444-2.439 5.444-5.445z" fill="#f9c1a8"/><path d="m181.487 147.056c-14.37 12.357-33.048 19.843-53.487 19.843-1.831 0-3.642-.081-5.443-.199l22.331 83.846c.85 3.192 5.135 3.763 6.791.904l15.631-26.981c1.027-1.771 3.295-2.376 5.067-1.35l26.981 15.632c2.858 1.656 6.292-.97 5.442-4.162z" fill="#f9677f"/><path d="m122.557 166.699c-18.302-1.202-34.962-8.393-48.044-19.643l-23.313 87.532c-.85 3.192 2.583 5.818 5.442 4.162l26.981-15.632c1.772-1.026 4.04-.422 5.067 1.35l15.631 26.981c1.656 2.858 5.941 2.288 6.791-.904l16.888-63.411z" fill="#f9677f"/><path d="m132.917 166.739 21.365 80.219 13.029-22.489c1.027-1.771 3.295-2.376 5.067-1.35l22.489 13.03-22.001-82.607c-11.612 7.594-25.257 12.329-39.949 13.197z" fill="#fc3850"/><path d="m83.134 153.542-22.001 82.607 22.489-13.03c1.772-1.026 4.04-.422 5.067 1.35l13.029 22.489 21.365-80.219c-14.692-.868-28.337-5.603-39.949-13.197z" fill="#fc3850"/><path d="m128 151.442c-36.747 0-66.643-29.896-66.643-66.643s29.896-66.642 66.643-66.642 66.643 29.896 66.643 66.642c0 36.747-29.896 66.643-66.643 66.643zm0-128.285c-33.99 0-61.643 27.652-61.643 61.642s27.653 61.643 61.643 61.643 61.643-27.653 61.643-61.643-27.653-61.642-61.643-61.642z"/><path d="m148.48 255.799c-.274 0-.551-.018-.828-.055-2.497-.333-4.53-2.121-5.18-4.556l-22.331-83.846c-.207-.778-.027-1.609.485-2.231.511-.623 1.293-.961 2.095-.907 2.021.133 3.698.194 5.279.194 19.014 0 37.43-6.833 51.857-19.238.652-.562 1.545-.749 2.369-.493.821.254 1.455.914 1.677 1.745l23.313 87.532c.647 2.435-.227 4.998-2.228 6.528-2.002 1.53-4.704 1.704-6.884.441l-26.98-15.632c-.579-.334-1.317-.137-1.65.44l-15.632 26.981c-1.122 1.939-3.167 3.097-5.362 3.097zm-22.625-86.434 21.45 80.537c.188.704.767.854 1.008.886.239.033.838.038 1.204-.592l15.632-26.981c1.716-2.961 5.521-3.974 8.482-2.26l26.98 15.632c.633.365 1.147.062 1.34-.086.193-.147.621-.566.434-1.271l-22.315-83.78c-14.838 11.602-33.176 17.948-52.07 17.948-.694 0-1.403-.01-2.145-.033z"/><path d="m107.519 255.799c-2.195 0-4.239-1.159-5.362-3.097l-15.631-26.98c-.333-.577-1.075-.774-1.651-.439l-26.98 15.631c-2.18 1.264-4.882 1.09-6.883-.441s-2.876-4.093-2.228-6.528l23.313-87.532c.222-.831.855-1.49 1.677-1.745s1.717-.068 2.369.493c13.166 11.322 29.273 17.908 46.579 19.044 1.07.07 1.976.815 2.252 1.851l5.442 20.435c.112.422.112.865 0 1.287l-16.889 63.411c-.649 2.435-2.683 4.223-5.18 4.556-.277.036-.554.054-.828.054zm-22.049-35.678c2.144 0 4.232 1.109 5.382 3.093l15.631 26.981c.365.631.964.624 1.204.592.241-.032.82-.182 1.008-.886l16.717-62.768-4.814-18.077c-16.406-1.42-31.739-7.469-44.669-17.604l-22.313 83.779c-.188.704.24 1.123.433 1.27.192.146.709.451 1.339.086l26.981-15.632c.977-.565 2.046-.834 3.101-.834z"/><path d="m104.825 118.298h-19.216c-2.304 0-4.179-1.875-4.179-4.178v-51.129c0-2.304 1.875-4.178 4.179-4.178h19.216c2.304 0 4.178 1.875 4.178 4.178v51.129c0 2.304-1.874 4.178-4.178 4.178zm-18.395-5h17.573v-49.486h-17.573zm18.395-49.486h.01z"/><path d="m114.253 114.202h-7.75c-1.381 0-2.5-1.119-2.5-2.5v-47.112c0-1.381 1.119-2.5 2.5-2.5h7.75c2.304 0 4.178 1.875 4.178 4.178v43.755c0 2.304-1.874 4.179-4.178 4.179zm-5.25-5h4.428v-42.112h-4.428zm5.25-42.112h.01z"/><path d="m137.069 89.015c-.919 0-1.804-.509-2.241-1.388-.614-1.236-.109-2.737 1.127-3.351 11.973-5.949 10.459-15.604 10.442-15.701-.234-1.361.679-2.654 2.039-2.889 1.363-.228 2.654.679 2.889 2.039.094.545 2.126 13.44-13.146 21.028-.357.178-.736.262-1.11.262z"/><path d="m165.011 81.538h-10.606c-4.38 0-7.943-3.563-7.943-7.944s3.563-7.944 7.943-7.944h10.606c4.38 0 7.943 3.563 7.943 7.944s-3.563 7.944-7.943 7.944zm-10.607-10.888c-1.623 0-2.943 1.321-2.943 2.944s1.32 2.944 2.943 2.944h10.606c1.623 0 2.943-1.321 2.943-2.944s-1.32-2.944-2.943-2.944z"/><path d="m165.011 92.426h-10.606c-4.38 0-7.943-3.564-7.943-7.944s3.563-7.944 7.943-7.944h10.606c4.38 0 7.943 3.563 7.943 7.944s-3.563 7.944-7.943 7.944zm-10.607-10.888c-1.623 0-2.943 1.321-2.943 2.944 0 1.624 1.32 2.944 2.943 2.944h10.606c1.623 0 2.943-1.321 2.943-2.944s-1.32-2.944-2.943-2.944z"/><path d="m165.011 103.313h-10.606c-4.38 0-7.943-3.563-7.943-7.944s3.563-7.944 7.943-7.944h10.606c4.38 0 7.943 3.563 7.943 7.944s-3.563 7.944-7.943 7.944zm-10.607-10.887c-1.623 0-2.943 1.321-2.943 2.944s1.32 2.944 2.943 2.944h10.606c1.623 0 2.943-1.321 2.943-2.944s-1.32-2.944-2.943-2.944z"/><path d="m165.011 114.202h-10.606c-4.38 0-7.943-3.564-7.943-7.944s3.563-7.944 7.943-7.944h10.606c4.38 0 7.943 3.563 7.943 7.944s-3.563 7.944-7.943 7.944zm-10.607-10.889c-1.623 0-2.943 1.321-2.943 2.944 0 1.624 1.32 2.944 2.943 2.944h10.606c1.623 0 2.943-1.321 2.943-2.944s-1.32-2.944-2.943-2.944z"/><path d="m165.01 114.202h-23.712c-2.7 0-5.371-.421-7.939-1.252l-4.15-1.343c-2.298-.743-4.688-1.12-7.102-1.12h-6.175c-1.381 0-2.5-1.119-2.5-2.5v-39.693c0-1.357 1.083-2.466 2.439-2.499 12.728-.311 14.287-2.148 15.795-3.925.31-.365.621-.729.971-1.087 2.367-2.982 8.404-11.261 9.213-15.405.65-3.326 3.108-5.474 6.265-5.474h.003c3.472.001 7.698 2.762 8.692 7.874.895 4.603-1.029 9.433-3.258 15.025-.372.934-.75 1.882-1.121 2.847h12.58c4.381 0 7.944 3.563 7.944 7.944 0 2.105-.823 4.021-2.164 5.444 1.341 1.423 2.164 3.339 2.164 5.444s-.822 4.021-2.164 5.444c1.342 1.423 2.164 3.339 2.164 5.444s-.823 4.021-2.164 5.444c1.341 1.423 2.164 3.339 2.164 5.444-.001 4.38-3.564 7.944-7.945 7.944zm-46.579-8.716h3.675c2.937 0 5.844.458 8.641 1.363l4.15 1.343c2.07.669 4.224 1.009 6.4 1.009h23.712c1.623 0 2.944-1.321 2.944-2.944s-1.321-2.944-2.944-2.944c-1.381 0-2.5-1.119-2.5-2.5s1.119-2.5 2.5-2.5c1.623 0 2.944-1.321 2.944-2.944 0-1.624-1.32-2.944-2.943-2.944-1.381 0-2.5-1.119-2.5-2.5s1.119-2.5 2.5-2.5c1.623 0 2.943-1.321 2.943-2.944 0-1.624-1.321-2.944-2.944-2.944-1.381 0-2.5-1.119-2.5-2.5s1.119-2.5 2.5-2.5c1.623 0 2.944-1.321 2.944-2.944s-1.321-2.944-2.944-2.944h-16.148c-.806 0-1.562-.388-2.031-1.042s-.595-1.495-.337-2.258c.758-2.245 1.6-4.356 2.413-6.397 1.937-4.86 3.608-9.059 2.994-12.22-.508-2.61-2.56-3.828-3.786-3.828-.329.023-1.078-.001-1.357 1.432-1.199 6.144-9.367 16.506-10.295 17.667-.058.073-.119.142-.186.208-.293.293-.545.594-.799.893-2.482 2.926-5.229 5.073-17.046 5.605z"/><path d="m154.283 249.458c-.11 0-.221-.007-.331-.022-1.002-.133-1.825-.857-2.086-1.834l-21.365-80.219c-.193-.726-.05-1.5.39-2.108s1.13-.987 1.879-1.031c13.783-.814 27.176-5.239 38.729-12.794.671-.44 1.513-.529 2.262-.243.75.287 1.315.916 1.522 1.691l22.001 82.607c.26.977-.094 2.015-.897 2.629s-1.898.683-2.771.177l-22.489-13.03c-.579-.334-1.317-.137-1.65.44l-13.029 22.489c-.454.779-1.282 1.248-2.165 1.248zm-18.177-80.459 19.038 71.483 10.004-17.267c1.716-2.961 5.521-3.974 8.482-2.26l17.268 10.004-19.577-73.504c-10.722 6.401-22.779 10.355-35.215 11.544z"/><path d="m101.717 249.458c-.883 0-1.712-.468-2.163-1.247l-13.029-22.489c-.333-.577-1.075-.774-1.651-.439l-22.489 13.029c-.875.506-1.97.437-2.772-.177-.803-.615-1.157-1.652-.897-2.629l22.001-82.607c.207-.775.773-1.404 1.522-1.691.75-.286 1.59-.196 2.262.243 11.553 7.555 24.945 11.979 38.729 12.794.75.044 1.439.423 1.879 1.031.439.608.583 1.382.39 2.108l-21.366 80.219c-.26.977-1.083 1.701-2.086 1.834-.11.013-.22.021-.33.021zm-16.247-29.337c2.144 0 4.232 1.109 5.382 3.093l10.003 17.268 19.039-71.483c-12.437-1.189-24.493-5.143-35.215-11.544l-19.577 73.504 17.267-10.004c.977-.565 2.046-.834 3.101-.834z"/></svg>